<?xml version="1.0" encoding="UTF-8" standalone="no"?>
<svg width="411px" height="103px" viewBox="0 0 411 103" version="1.1" xmlns="http://www.w3.org/2000/svg" xmlns:xlink="http://www.w3.org/1999/xlink" xmlns:sketch="http://www.bohemiancoding.com/sketch/ns">
    <!-- Generator: Sketch 3.0.3 (7892) - http://www.bohemiancoding.com/sketch -->
    <title>Slice 1</title>
    <desc>Created with Sketch.</desc>
    <defs></defs>
    <g id="Page-1" stroke="none" stroke-width="1" fill="none" fill-rule="evenodd" sketch:type="MSPage">
        <g id="CFG_logo" sketch:type="MSLayerGroup" transform="translate(0.000000, 3.000000)">
            <g id="Ebene_2"></g>
            <g id="Ebene_1" sketch:type="MSShapeGroup">
                <g id="Group">
                    <g id="Shape">
                        <path d="M55.843,9.094 L55.843,10.385 L55.843,92.207 L62.688,92.207 L64.6,92.207 L66.232,92.207 L66.232,9.094 L55.843,9.094 Z" fill="#FF8282"></path>
                        <path d="M97.05,100 C97.762,100 98.7,99.358 98.7,98.648 L98.7,1.297 C98.7,0.585 97.762,0.002 97.05,0.002 L64.6,0.002 C63.886,0.002 63.636,0.292 63.636,0.65 L63.636,2.595 L63.636,9.085 C63.636,9.8 63.886,10.39 64.6,10.39 L86.663,10.39 C87.379,10.39 88.312,10.968 88.312,11.682 L88.312,88.261 C88.312,88.976 87.378,89.61 86.663,89.61 L64.6,89.61 C63.886,89.61 63.636,89.852 63.636,90.21 L63.636,92.156 L63.636,98.648 C63.636,99.358 63.886,100 64.6,100 L97.05,100 L97.05,100 Z" fill="#FF645F"></path>
                        <path d="M111.688,9.094 L111.688,10.385 L111.688,92.207 L120.411,92.207 L122.079,92.207 L122.079,9.094 L111.688,9.094 Z" fill="#8CDBA6"></path>
                        <g>
                            <path d="M120.779,99.942 L120.779,89.559 C135.065,89.559 145.035,71.801 145.035,49.974 C145.035,28.146 135.065,10.385 120.779,10.385 L120.779,0 C140.26,0 155.419,22.419 155.419,49.974 C155.419,77.526 140.261,99.942 120.779,99.942" fill="#21D68F"></path>
                            <path d="M12.985,68.016 L12.985,82.336 L12.985,86.941 C12.985,94.71 17.958,100 25.816,100 L28.024,100 L34.382,100 L41.884,100 C42.243,100 42.857,99.358 42.857,98.648 L42.857,90.858 C42.857,90.148 41.951,89.61 41.235,89.61 L33.778,89.61 L29.972,89.61 L27.616,89.61 C24.253,89.61 23.378,88.021 23.378,84.181 L23.378,78.06 L23.378,69.566 L23.378,61.95 C23.378,54.116 20.191,51.233 16.316,49.815 C20.192,48.398 23.378,45.518 23.378,37.69 L23.378,32.28 L23.378,18.552 L23.378,15.291 C23.378,11.519 24.131,10.393 27.616,10.393 L30.549,10.393 L34.27,10.393 L41.885,10.393 C42.244,10.393 42.858,9.801 42.858,9.086 L42.858,1.298 C42.858,0.585 41.952,0.002 41.236,0.002 L34.999,0.002 L29.11,0.002 L25.817,0.002 C17.959,0.002 12.986,5.09 12.986,12.69 L12.986,16.766 L12.986,33.75 C12.986,33.75 12.73,37.648 12.542,38.975 C12.051,42.487 7.747,45.494 5.084,45.454 L1.001,45.454 C0.288,45.454 0,46.015 0,46.729 L0,54.514 C0,55.23 0.288,55.845 1.001,55.845 L4.73,55.845 C8.129,55.798 12.425,58.662 12.751,62.938 C12.848,64.176 12.985,68.016 12.985,68.016" fill="#00ABFA"></path>
                            <path d="M64.6,0.002 L60.919,0.002 L56.812,0.002 C56.099,0.002 55.843,0.585 55.843,1.299 L55.843,3.696 L55.843,9.086 L55.843,10.393 L56.812,10.393 L64.6,10.393 L66.236,10.393 L66.236,9.086 L66.236,1.299 L66.236,0.002 L64.6,0.002 L64.6,0.002 Z" fill="#BD3B38"></path>
                            <path d="M55.843,90.858 L55.843,94.538 L55.843,98.648 C55.843,99.358 56.099,100 56.812,100 L59.212,100 L64.6,100 L66.233,100 L66.233,98.648 L66.233,90.858 L66.233,89.61 L64.6,89.61 L56.812,89.61 L55.843,89.61 L55.843,90.858 L55.843,90.858 Z" fill="#BD3B38"></path>
                            <path d="M120.411,0.002 L116.732,0.002 L112.623,0.002 C111.911,0.002 111.687,0.585 111.687,1.299 L111.687,3.696 L111.687,9.086 L111.687,10.393 L112.623,10.393 L120.411,10.393 L122.079,10.393 L122.079,9.086 L122.079,1.299 L122.079,0.002 L120.411,0.002 L120.411,0.002 Z" fill="#00B05C"></path>
                            <path d="M111.688,90.858 L111.688,94.538 L111.688,98.648 C111.688,99.358 111.912,100 112.624,100 L115.021,100 L120.412,100 L122.08,100 L122.08,98.648 L122.08,90.858 L122.08,89.61 L120.412,89.61 L112.624,89.61 L111.688,89.61 L111.688,90.858 L111.688,90.858 Z" fill="#00B05C"></path>
                            <path d="M176.623,68.016 L176.623,82.336 L176.623,86.941 C176.623,94.71 181.501,100 189.358,100 L191.567,100 L197.927,100 L205.428,100 C205.785,100 206.492,99.358 206.492,98.648 L206.492,90.858 C206.492,90.148 205.492,89.61 204.777,89.61 L197.319,89.61 L193.513,89.61 L191.157,89.61 C187.798,89.61 187.013,88.181 187.013,84.34 L187.013,82.06 L187.013,69.565 L187.013,61.949 C187.013,59.428 186.273,57.143 185.698,55.845 L168.269,55.845 C173.055,57.144 175.103,58.86 176.081,63.03 C176.567,65.104 176.623,68.016 176.623,68.016" fill="#78CCC7"></path>
                            <path d="M175.886,38.971 C174.881,42.372 172.636,44.158 168.625,45.454 L184.979,45.454 C185.995,42.858 187.014,41.126 187.014,37.688 L187.014,32.281 L187.014,18.552 L187.014,15.291 C187.014,11.519 187.671,10.393 191.158,10.393 L194.091,10.393 L197.809,10.393 L205.429,10.393 C205.786,10.393 206.493,9.801 206.493,9.086 L206.493,1.298 C206.493,0.585 205.493,0 204.778,0 L198.542,0 L192.655,0 L189.358,0 C181.501,0 176.623,5.09 176.623,12.69 L176.623,16.769 L176.623,33.749 C176.623,33.75 176.39,37.275 175.886,38.971" fill="#78CCC7"></path>
                            <path d="M178.415,50.73 C181.043,51.696 183.928,53.248 185.699,55.844 L204.778,55.844 C205.493,55.844 206.493,55.229 206.493,54.515 L206.493,46.728 C206.493,46.014 205.493,45.454 204.778,45.454 L184.979,45.454 C183.68,48.052 180.591,49.938 178.415,50.73" fill="#96DBD6"></path>
                            <path d="M164.545,45.454 C163.829,45.454 163.636,46.015 163.636,46.728 L163.636,54.517 C163.636,55.229 163.829,55.844 164.545,55.844 L168.271,55.844 L185.7,55.844 C184.531,53.247 181.623,51.469 179.548,50.659 C181.725,49.862 183.681,48.052 184.981,45.453 L168.627,45.453 L164.545,45.453 L164.545,45.454 Z" fill="#40A6A6"></path>
                        </g>
                    </g>
                </g>
            </g>
        </g>
        <path d="M265.235617,0.427226562 C261.640953,0.427226562 258.278,1.97663281 256.489992,4.88442188 C255.17875,7.01696094 255.085672,9.14867969 255.085672,11.4195781 L255.085672,13.9326328 L249.527945,13.9326328 L249.527945,17.1222813 L255.085672,17.1222813 L255.085672,38 L258.951914,38 L258.951914,17.1222813 L267.312648,17.1222813 L267.312648,13.9326328 L258.951914,13.9326328 L258.951914,11.9511953 C258.951914,10.0980547 258.927523,8.13734375 259.883352,6.42458594 C260.938492,4.53403906 262.913313,3.59133594 265.029117,3.59133594 C267.492734,3.59133594 269.542422,4.89158594 270.618453,6.51903125 C270.798156,6.7909375 270.753312,6.94400781 270.772562,7.18321094 C270.803406,7.56684375 271.054859,7.66752344 271.227234,7.65002344 L273.063695,3.92875781 C271.233086,1.72567187 268.453703,0.427226562 265.235617,0.427226562 Z M299.76432,25.3233828 C299.76432,16.4899844 294.189094,11.8542891 288.374719,11.8542891 C281.854766,11.8542891 276.265047,17.5021953 276.265047,25.4067812 C276.265047,33.1897969 281.807297,38.6765937 288.255227,38.6765937 C294.313508,38.6765937 299.76432,33.8049219 299.76432,25.3233828 Z M288.100078,15.2808984 C291.790883,15.2808984 295.707328,18.4657344 295.707328,25.4906172 C295.707328,31.9300156 292.020734,35.1973203 288.286453,35.1973203 C284.209227,35.1973203 280.523563,31.3682109 280.523563,25.0574922 C280.523563,18.7859844 284.187297,15.2808984 288.100078,15.2808984 Z M307.557727,12.4344688 L307.557727,38.0483438 L311.617289,38.0483438 L311.617289,25.5797031 C311.617289,24.035875 311.677063,22.3375 313.416125,19.5879219 C315.740891,15.9124844 318.794641,15.2759219 320.603594,15.2759219 C322.756148,15.2759219 324.109555,16.2745156 324.82782,17.1921719 C325.163984,17.6216328 325.34757,18.0644375 325.777359,18.4754688 L327.662164,14.6092266 C326.052711,12.9605625 323.697266,11.8157344 320.823875,11.8157344 C317.086477,11.8157344 313.292859,13.7062813 311.617289,17.3639453 L311.762266,12.4344688 L307.557727,12.4344688 Z M261.525672,64.7678516 C256.885164,64.7678516 248.024313,67.6606016 248.024313,82.9705859 C248.024313,96.1767969 255.418664,100.533969 261.50768,100.533969 C264.73982,100.533969 268.469344,99.3290937 271.758797,96.9069844 L271.758797,83.2785312 L261.803266,83.2785312 L261.803266,86.6614453 L268.134219,86.6614453 L268.134219,94.9738906 C266.176242,96.3692422 263.933016,97.1004687 261.853797,97.1004687 C259.596352,97.1004687 257.116055,96.2080781 255.218289,94.0452422 C252.305195,90.7253281 251.895695,85.8295937 251.895695,82.1440391 C251.895695,78.8946719 252.285836,75.7645234 253.650891,73.1956328 C255.451203,69.8079062 258.561937,68.1968672 261.501336,68.1968672 C264.615516,68.1968672 267.094445,69.9804453 268.161672,72.3187734 C268.333555,72.6952422 268.469289,73.1385391 268.9075,73.4195781 L271.662164,70.6165703 C269.667219,67.0006875 265.824656,64.7678516 261.525672,64.7678516 Z M279.944367,74.3861797 L279.944367,77.6724609 L286.130344,77.6724609 L286.130344,96.7620078 L279.60607,96.7620078 L279.60607,100 L296.182563,100 L296.182563,96.7620078 L290.189906,96.7620078 L290.189906,74.3861797 L279.944367,74.3861797 Z M288.256922,63.2707266 C286.65332,63.2707266 285.356188,64.5628281 285.356188,66.1469063 C285.356188,67.7306563 286.653156,69.0221563 288.256266,69.0221563 C289.860359,69.0221563 291.157328,67.7301094 291.157328,66.1465781 C291.157328,64.5620078 289.859867,63.2707266 288.256922,63.2707266 Z M316.48382,73.7930937 C310.373367,73.7930937 304.720813,78.1626797 304.720813,87.5018281 C304.720813,96.0261328 310.056289,100.586852 317.005211,100.586852 C320.656805,100.586852 323.973547,99.2505625 326.164,96.6170312 L323.940898,94.4422734 C322.273422,96.3097969 319.861484,97.3206406 317.317695,97.3206406 C313.895023,97.3206406 308.939789,95.4337031 308.635344,87.7730234 L326.79225,87.7730234 C326.947453,86.0152578 326.866242,84.3721172 326.614953,82.8869687 C325.452898,76.0186562 320.678133,73.7930937 316.48382,73.7930937 Z M308.76632,84.6800078 C309.563117,78.6462813 313.45725,76.8910312 316.202781,76.8910312 C320.349187,76.8910312 323.309859,80.5315781 322.829375,84.6800078 L308.76632,84.6800078 Z M333.093016,100 L336.910914,100 L336.910914,76.2226406 C336.910914,73.7480312 336.946133,70.8845937 338.540437,68.5690703 C339.852609,66.663375 341.783953,65.774375 343.617188,65.774375 C346.94607,65.774375 349.723375,68.611125 349.723375,72.3020391 C349.723375,74.9387969 348.262016,77.3474531 346.151297,78.2919062 C345.214992,78.7108672 344.416336,78.7356953 343.580164,78.7356953 L341.985367,78.7356953 L341.985367,81.9253437 L343.676797,81.9253437 C345.501281,81.9253437 347.014922,82.0521641 348.596102,83.0426094 C350.706656,84.364625 352.285594,86.9378359 352.285594,89.8801328 C352.285594,93.9352656 349.229766,97.0053125 345.660422,97.0053125 C344.287602,97.0053125 342.959133,96.5441328 341.88868,95.6988281 L339.907242,98.8401328 C341.643242,99.97725 343.666023,100.581328 345.726539,100.581328 C351.466867,100.581328 356.000734,95.968 356.000734,89.8839609 C356.000734,85.2309844 353.288836,81.1965781 349.089547,79.8955625 C351.839453,78.4798125 353.545867,75.6191094 353.545867,72.3994922 C353.545867,67.0744063 348.98832,62.545625 343.401281,62.545625 C339.583328,62.545625 335.979641,64.7011875 334.262945,68.6007891 C333.125227,71.1851563 333.093016,73.7672266 333.093016,76.3192734 L333.093016,100 Z M372.48382,73.7930937 C366.373367,73.7930937 360.720812,78.1626797 360.720812,87.5018281 C360.720812,96.0261328 366.056289,100.586852 373.005211,100.586852 C376.656805,100.586852 379.973547,99.2505625 382.164,96.6170312 L379.940898,94.4422734 C378.273422,96.3097969 375.861484,97.3206406 373.317695,97.3206406 C369.895023,97.3206406 364.939789,95.4337031 364.635344,87.7730234 L382.79225,87.7730234 C382.947453,86.0152578 382.866242,84.3721172 382.614953,82.8869687 C381.452898,76.0186562 376.678133,73.7930937 372.48382,73.7930937 Z M364.76632,84.6800078 C365.563117,78.6462813 369.45725,76.8910312 372.202781,76.8910312 C376.349187,76.8910312 379.309859,80.5315781 378.829375,84.6800078 L364.76632,84.6800078 Z M389.817898,100 L393.925805,100 L393.925805,85.2599687 C393.925805,83.5369844 394.132961,82.2854062 395.19718,80.8673047 C396.172586,79.5675469 398.631117,77.3061094 401.336453,77.3061094 C402.620406,77.3061094 403.886039,77.8280469 404.804953,78.9260625 C406.189586,80.5806875 406.201125,82.7762812 406.201125,84.583375 L406.201125,100 L410.164,100 L410.164,84.4866875 C410.164,82.4891172 410.150875,80.3781797 409.24093,78.3216016 C407.967203,75.443125 405.344773,73.8061094 402.429438,73.8061094 C398.957711,73.8061094 395.804375,76.0775547 393.925805,78.9290156 L393.925805,74.4344688 L389.817898,74.4344688 L389.817898,100 Z" id="for" fill="#000000" sketch:type="MSShapeGroup"></path>
    </g>
</svg>